<?xml version="1.0" encoding="iso-8859-1"?>
<!-- Generator: Adobe Illustrator 19.0.0, SVG Export Plug-In . SVG Version: 6.00 Build 0)  -->
<svg version="1.1" id="Capa_1" xmlns="http://www.w3.org/2000/svg" xmlns:xlink="http://www.w3.org/1999/xlink" x="0px" y="0px"
	 viewBox="0 0 507.901 507.901" style="enable-background:new 0 0 507.901 507.901;" xml:space="preserve">
<g>
	<g>
		<path d="M483.4,57.3H24.6C11,57.3,0,68.3,0,81.8v295c0,13.6,11,24.6,24.6,24.6h117.8l-24.6,49.2h272.3l-24.6-49.2h117.8
			c13.6,0,24.6-11,24.6-24.6v-295C508,68.3,497,57.3,483.4,57.3z M144.4,434.2l16.4-32.8h186.5l16.3,32.8H144.4z M491.6,376.8
			c0,4.5-3.7,8.2-8.2,8.2H24.6c-4.5,0-8.2-3.7-8.2-8.2v-41h475.2V376.8z M491.6,319.4H16.4V81.8c0-4.5,3.7-8.2,8.2-8.2h458.8
			c4.5,0,8.2,3.7,8.2,8.2V319.4z"/>
	</g>
</g>
<g>
	<g>
		<rect x="245.8" y="352.2" width="16.4" height="16.4"/>
	</g>
</g>
<g>
	<g>
		<rect x="213" y="352.2" width="16.4" height="16.4"/>
	</g>
</g>
<g>
	<g>
		<rect x="278.6" y="352.2" width="16.4" height="16.4"/>
	</g>
</g>
<g>
</g>
<g>
</g>
<g>
</g>
<g>
</g>
<g>
</g>
<g>
</g>
<g>
</g>
<g>
</g>
<g>
</g>
<g>
</g>
<g>
</g>
<g>
</g>
<g>
</g>
<g>
</g>
<g>
</g>
</svg>
